<svg width="80" height="47" fill="none" xmlns="http://www.w3.org/2000/svg"><path d="M79.326 19.2l-3.705-8.364a8.316 8.316 0 00-3.141-3.652 8.647 8.647 0 00-4.69-1.355h-5.985V3.703a3.16 3.16 0 00-.964-2.26 3.334 3.334 0 00-2.32-.938H16.757a2.226 2.226 0 00-.84.158 2.18 2.18 0 00-.713.462 2.114 2.114 0 00-.474.694c-.11.26-.165.537-.162.818.01.562.244 1.098.652 1.496.409.398.96.626 1.537.636h40.505v15.743a3.42 3.42 0 00.269 1.354c.18.429.447.819.784 1.147a3.6 3.6 0 001.178.764c.441.176.914.264 1.39.26h14.569v9.922c0 .195-.08.38-.22.518a.762.762 0 01-.532.215H72a7.999 7.999 0 00-2.955-2.876 8.27 8.27 0 00-4.034-1.06c-2.948 0-5.564 1.64-6.99 3.936H35.537a8 8 0 00-2.956-2.876 8.27 8.27 0 00-4.034-1.06c-2.947 0-5.564 1.64-6.99 3.936h-7.746a2.22 2.22 0 00-1.549.624c-.41.4-.64.942-.64 1.508 0 .565.23 1.107.64 1.507.411.4.968.624 1.549.624h6.652a7.789 7.789 0 002.487 5.35 8.209 8.209 0 005.597 2.19c2.086 0 4.091-.784 5.598-2.19a7.789 7.789 0 002.487-5.35h20.3a7.789 7.789 0 002.487 5.35 8.209 8.209 0 005.598 2.19c2.085 0 4.09-.784 5.597-2.19a7.789 7.789 0 002.487-5.35h1.77a5.228 5.228 0 003.619-1.471A4.957 4.957 0 0080 33.959V22.48a9.172 9.172 0 00-.675-3.28h.001zM28.547 42.241a3.777 3.777 0 01-2.058-.608 3.63 3.63 0 01-1.364-1.618 3.52 3.52 0 01-.212-2.083 3.58 3.58 0 011.012-1.848 3.737 3.737 0 011.896-.989 3.798 3.798 0 012.14.203 3.687 3.687 0 011.664 1.327 3.54 3.54 0 01.628 2.002c-.007.956-.4 1.87-1.093 2.546a3.789 3.789 0 01-2.613 1.068zm36.464 0a3.777 3.777 0 01-2.057-.61 3.63 3.63 0 01-1.362-1.62 3.52 3.52 0 01-.21-2.083 3.58 3.58 0 011.015-1.846 3.737 3.737 0 011.895-.987 3.798 3.798 0 012.14.204 3.685 3.685 0 011.663 1.326 3.54 3.54 0 01.627 2.002 3.592 3.592 0 01-1.095 2.548 3.79 3.79 0 01-2.616 1.066zm-3.285-32.066h5.98c1.6 0 3.115.902 3.705 2.378l3.2 7.215H61.726v-9.593z" fill="#fff"/><path d="M10.442 13.706h15.489a2.22 2.22 0 001.548-.624c.41-.4.641-.942.641-1.508 0-.565-.23-1.107-.641-1.507a2.22 2.22 0 00-1.548-.625H10.442a2.226 2.226 0 00-.84.159 2.18 2.18 0 00-.713.461 2.115 2.115 0 00-.474.694c-.11.26-.165.538-.163.818.01.563.245 1.099.653 1.497.409.397.96.625 1.537.635zM6.316 21.905h15.489a2.22 2.22 0 001.548-.624c.41-.4.641-.942.641-1.507 0-.566-.23-1.108-.641-1.508a2.22 2.22 0 00-1.548-.624H6.316a2.224 2.224 0 00-.84.158 2.18 2.18 0 00-.713.462 2.115 2.115 0 00-.474.693c-.11.26-.164.538-.162.819.01.562.244 1.098.652 1.496.409.397.96.625 1.537.636zM19.958 27.974a2.069 2.069 0 00-.163-.818c-.109-.26-.27-.496-.474-.694A2.18 2.18 0 0018.61 26a2.226 2.226 0 00-.84-.158H2.188a2.22 2.22 0 00-1.548.624c-.41.4-.641.942-.641 1.508 0 .565.23 1.107.641 1.507.41.4.968.625 1.548.625h15.49c.295.017.592-.025.87-.125.279-.1.533-.255.747-.456.213-.2.382-.441.495-.708a2.04 2.04 0 00.16-.843h.007z" fill="#fff"/></svg>